<svg xmlns="http://www.w3.org/2000/svg" viewBox="0 0 197.9 157.48"><defs><style>.cls-1{fill:#f6c068;}.cls-2{fill:#fef8ee;}.cls-3{fill:#ffbe55;}.cls-4{fill:#cce9ff;}.cls-5{fill:none;stroke:#4d4d4d;stroke-miterlimit:10;}.cls-6{fill:#d3d3d3;}</style></defs><g id="Layer_2" data-name="Layer 2"><g id="Layer_6" data-name="Layer 6"><path class="cls-1" d="M29.68,138.3C43.49,158.08,52.25,143,107.35,143s98.09-2.07,89.44-30.41C172,31.52,94.3,40.53,47,6.75,2.15-25.28-22.83,63.06,29.68,138.3Z"/><path class="cls-2" d="M29.51,147.27c13.8,19.78,22.56,4.72,77.67,4.72s98.09-2.07,89.43-30.41C171.83,40.5,94.12,49.51,46.82,15.72,2-16.31-23,72,29.51,147.27Z"/><path class="cls-3" d="M113.09,143.32a3.5,3.5,0,0,1-3.5,3.5H96.09a3.49,3.49,0,0,1-3.5-3.5v-31.5a3.5,3.5,0,0,1,3.5-3.5h13.5a3.5,3.5,0,0,1,3.5,3.5Z"/><path class="cls-4" d="M104.46,72.06S93.4,94.52,109.69,98.35s16.75-13.12,15.08-20.1S149,52.48,127.63,35.87,89.71,63.49,104.46,72.06Z"/><path class="cls-4" d="M83.88,84.25S83.35,99,93.06,97.16,98.91,86,96.32,82.67s6.8-19.73-8.71-23.53S73.85,83.2,83.88,84.25Z"/><line class="cls-5" x1="85.53" y1="70.32" x2="97.53" y2="108.32"/><line class="cls-5" x1="117.47" y1="48.81" x2="107.18" y2="108.32"/><path class="cls-6" d="M179.37,156.63H29.51c-1.27,0-2.3-2.1-2.3-4.68h0c0-2.58,1-4.68,2.3-4.68H179.37c1.27,0,2.3,2.1,2.3,4.68h0C181.67,154.53,180.64,156.63,179.37,156.63Z"/></g></g></svg>