<?xml version="1.0" encoding="utf-8"?>
<!-- Generator: Adobe Illustrator 24.3.0, SVG Export Plug-In . SVG Version: 6.00 Build 0)  -->
<svg version="1.1" id="Layer_1" xmlns="http://www.w3.org/2000/svg" xmlns:xlink="http://www.w3.org/1999/xlink" x="0px" y="0px"
	 viewBox="0 0 208.1 208" style="enable-background:new 0 0 208.1 208;" xml:space="preserve">
<style type="text/css">
	.st0{fill:#FFBE55;}
</style>
<g id="Layer_2_1_">
	<g id="Maintenance">
		<path class="st0" d="M38.5,53.6c-3.9,5-7.1,10.4-9.7,16.2c-1.6,3.5-5,5.9-8.9,6.1L3.6,76.7L0,100.8l15.3,5.5
			c3.6,1.3,6.2,4.6,6.7,8.4c0.8,6.3,2.3,12.4,4.6,18.3c1.4,3.6,0.6,7.7-2,10.6l-10.9,12l14.5,19.6l14.8-6.9
			c3.5-1.6,7.6-1.2,10.7,1.2c5,3.9,10.4,7.1,16.2,9.7c3.5,1.6,5.9,5,6.1,8.9l0.8,16.3l24.1,3.6l5.5-15.3c1.3-3.6,4.6-6.2,8.4-6.7
			c6.3-0.8,12.4-2.3,18.3-4.6c3.6-1.4,7.7-0.6,10.6,2l12,11l19.6-14.5l-6.9-14.8c-1.6-3.5-1.2-7.6,1.2-10.7c3.9-5,7.1-10.4,9.7-16.2
			c1.6-3.5,5-5.9,8.9-6.1l16.3-0.8l3.6-24.1l-15.3-5.5c-3.6-1.3-6.2-4.6-6.7-8.4c-0.8-6.3-2.3-12.4-4.6-18.3
			c-1.4-3.6-0.6-7.7,2-10.6l11-12L180,32.8l-14.8,6.9c-3.5,1.6-7.6,1.2-10.7-1.2c-5-3.9-10.4-7.1-16.2-9.7c-3.5-1.6-5.9-5-6.1-8.9
			l-0.8-16.3L107.3,0l-5.5,15.3c-1.3,3.6-4.6,6.2-8.4,6.7c-6.3,0.8-12.4,2.3-18.3,4.6c-3.6,1.4-7.7,0.6-10.6-2l-12-11L32.9,28.1
			l6.9,14.8C41.3,46.4,40.8,50.5,38.5,53.6z M153.8,67.1c20.4,27.5,14.5,66.4-13,86.7s-66.4,14.5-86.7-13s-14.5-66.4,13-86.7
			c0,0,0,0,0,0C94.6,33.8,133.4,39.6,153.8,67.1z"/>
		<path class="st0" d="M128.5,137.2c-18.4,13.6-44.2,9.7-57.8-8.7S61,84.3,79.4,70.7c18.4-13.6,44.2-9.7,57.8,8.7
			c13.6,18.3,9.7,44.1-8.6,57.7C128.6,137.1,128.5,137.2,128.5,137.2z"/>
	</g>
</g>
</svg>
