<svg xmlns="http://www.w3.org/2000/svg" viewBox="0 0 784.3 213.34"><defs><style>.cls-1,.cls-3{opacity:0.1;}.cls-2,.cls-3{fill:#2a94f4;}.cls-12,.cls-3,.cls-4{isolation:isolate;}.cls-4,.cls-5{fill:#ffbe55;}.cls-4{opacity:0.19;}.cls-6{fill:#fcd2b1;}.cls-7{fill:#0e538c;}.cls-8{fill:#ffe3ca;}.cls-9{fill:#d3d3d3;}.cls-10{fill:#f7f7f7;}.cls-11{fill:#0b4870;}.cls-12{fill:#161616;opacity:0.32;}.cls-13{fill:#cce9ff;}</style></defs><g id="Layer_2" data-name="Layer 2"><g id="Layer_5" data-name="Layer 5"><g class="cls-1"><path class="cls-2" d="M22.51,140.59a9.59,9.59,0,0,0-.67-2.19,1.24,1.24,0,0,1,.18-1.29l1.25-1.54-1.88-2.29-1.74.92a1.24,1.24,0,0,1-1.31-.08,10.4,10.4,0,0,0-2-1.08,1.27,1.27,0,0,1-.78-1l-.18-2-2.95-.29-.57,1.9a1.24,1.24,0,0,1-1,.86,10.13,10.13,0,0,0-2.19.68A1.24,1.24,0,0,1,7.37,133l-1.54-1.24-2.29,1.88.92,1.74a1.24,1.24,0,0,1-.08,1.31,10.32,10.32,0,0,0-1.08,2,1.25,1.25,0,0,1-1,.78l-2,.19L0,142.61l1.9.58a1.24,1.24,0,0,1,.86,1,10.31,10.31,0,0,0,.68,2.19,1.23,1.23,0,0,1-.19,1.29L2,149.18l1.88,2.3,1.74-.93a1.26,1.26,0,0,1,1.31.09,10.32,10.32,0,0,0,2,1.08,1.24,1.24,0,0,1,.78,1.05l.19,2,2.94.29.58-1.91a1.25,1.25,0,0,1,1-.86,9.74,9.74,0,0,0,2.19-.67,1.24,1.24,0,0,1,1.29.18L19.44,153l2.3-1.88-.93-1.74a1.26,1.26,0,0,1,.09-1.31,11,11,0,0,0,1.08-2,1.26,1.26,0,0,1,1.05-.78l2-.18.29-3-1.91-.57A1.32,1.32,0,0,1,22.51,140.59Zm-10.6,9.29a7.53,7.53,0,1,1,8.23-6.75A7.53,7.53,0,0,1,11.91,149.88Z"/><path class="cls-2" d="M7.65,141.88a5,5,0,1,1,4.51,5.48A5,5,0,0,1,7.65,141.88Z"/></g><ellipse class="cls-3" cx="402.92" cy="202.85" rx="381.38" ry="10.5"/><path class="cls-4" d="M86.06,176a3.17,3.17,0,0,0,3.16,3.16H202.46a3.16,3.16,0,0,0,3.15-3.16V78.45H86.08V176Z"/><path class="cls-5" d="M121.64,135.7a25.13,25.13,0,0,0,2.21,5.32,3.13,3.13,0,0,1-.13,3.27L121,148.41l5.26,5.26,4.11-2.75a3.17,3.17,0,0,1,3.28-.12A24.79,24.79,0,0,0,139,153a3.18,3.18,0,0,1,2.23,2.42l1,4.85h7.43l1-4.87a3.17,3.17,0,0,1,2.24-2.42,25.67,25.67,0,0,0,5.32-2.21,3.15,3.15,0,0,1,3.27.12l4.12,2.75,5.26-5.26L168,144.27a3.15,3.15,0,0,1-.12-3.27,24.79,24.79,0,0,0,2.21-5.32,3.21,3.21,0,0,1,2.42-2.24l4.85-1v-7.43l-4.87-1a3.14,3.14,0,0,1-2.42-2.23,25.67,25.67,0,0,0-2.21-5.32,3.17,3.17,0,0,1,.12-3.28l2.75-4.11-5.26-5.26-4.12,2.74a3.13,3.13,0,0,1-3.27.13,24.83,24.83,0,0,0-5.32-2.22,3.18,3.18,0,0,1-2.24-2.41l-1-4.85h-7.43l-1,4.87a3.14,3.14,0,0,1-2.23,2.42,25.13,25.13,0,0,0-5.32,2.21,3.15,3.15,0,0,1-3.28-.13l-4.11-2.74L121,109.15l2.74,4.11a3.15,3.15,0,0,1,.13,3.28,24.83,24.83,0,0,0-2.22,5.32,3.15,3.15,0,0,1-2.41,2.23l-4.85,1v7.43l4.87,1A3.11,3.11,0,0,1,121.64,135.7Zm24.19-25.81A18.87,18.87,0,1,1,127,128.76,18.88,18.88,0,0,1,145.83,109.89Z"/><path class="cls-5" d="M86.06,62.71v9.44H205.59V62.71a3.15,3.15,0,0,0-3.15-3.15H89.19A3.14,3.14,0,0,0,86.06,62.71Zm31.46,0h6.28V69h-6.28Zm-12.59,0h6.29V69h-6.29Zm-12.58,0h6.28V69H92.35Z"/><path class="cls-5" d="M158.41,128.78a12.59,12.59,0,1,1-12.58-12.59A12.59,12.59,0,0,1,158.41,128.78Z"/><path class="cls-5" d="M149,6.1A3.15,3.15,0,0,0,145.83,3H32.58A3.15,3.15,0,0,0,29.43,6.1v9.43H149V6.1ZM42,12.38H35.74V6.1H42Zm12.59,0H48.32V6.1h6.29Zm12.58,0H60.91V6.1h6.28Z"/><path class="cls-4" d="M79.76,62.71a9.42,9.42,0,0,1,9.43-9.43H149V21.82H29.43v97.5a3.15,3.15,0,0,0,3.15,3.15H79.76Zm25.17-25.15h6.29v6.28h-6.29Zm-12.58,0h6.28v6.28H92.35Zm-12.59,0H86v6.28H79.76ZM67.19,113H42v-6.28H67.19Zm0-12.59H42V94.17H67.19Zm0-12.56H42V81.6H67.19Zm0-12.59H42V69H67.19Zm0-12.59H42V56.43H67.19Zm0-18.87V37.56h6.29v6.28Z"/><path class="cls-6" d="M104.38,151.11l.12-3.32,2.36.72.45,4.13S105.06,152.79,104.38,151.11Z"/><path class="cls-7" d="M104.59,151.13a4.36,4.36,0,0,0,2.62.16l-.15-.94a1.93,1.93,0,0,1,.82,1.25c.17.84.21.61,1.27,1.27a2.5,2.5,0,0,1,1,2.13l-8-.21a4.55,4.55,0,0,1,1.23-3.33A1,1,0,0,1,104.59,151.13Z"/><path class="cls-5" d="M91.63,102.38s-1,4.07.43,6.63,4.13-3.11,4.13-3.11S95.72,100.45,91.63,102.38Z"/><path class="cls-8" d="M90.89,83.05s-5.4,7.35-6.3,11.79.06,14.15.06,14.15h2.21S88,96.6,88.77,94.84s5.52-10.11,5.52-10.11Z"/><rect class="cls-9" x="89.97" y="154.63" width="20.51" height="2.35"/><rect class="cls-9" x="85.59" y="170.88" width="22.04" height="2.35"/><rect class="cls-9" x="83.61" y="186.6" width="22.04" height="2.35"/><polygon class="cls-9" points="81.4 202.23 78.94 202.23 97.03 117.13 98.41 117.13 81.4 202.23"/><polygon class="cls-9" points="107.04 202.23 104.59 202.23 118.93 114.74 120.14 115.31 107.04 202.23"/><polyline class="cls-10" points="102.07 202.23 115.27 117.28 97.03 117.13 78.94 202.23 76.12 202.23 94.5 114.74 118.93 114.74 105.36 202.23 101.66 202.23"/><path class="cls-6" d="M93.78,151.11l.12-3.32,2.36.72.45,4.13S94.45,152.79,93.78,151.11Z"/><path class="cls-8" d="M117,76.3s5.83-.43,6.53-3.13.57-10,.57-10h2s1.39,6.78,1.31,10-4,8.7-10.44,8.35S117,76.3,117,76.3Z"/><path class="cls-2" d="M98.12,76s-3.38.35-4.77,1.82c-.68.72-4.87,5.92-4.71,7l4.93,3.07,4-5.59Z"/><path class="cls-11" d="M92.84,101a16.49,16.49,0,0,0-.08,9c1.37,4.71,1.37,14.2,1.24,16.68s-2.43,9.64-.47,22.29h3s1.85-13.26,2.91-18.91c1-5.3,2.27-18.53,2.27-18.53s3.81,12.55,3.17,15.78c-.69,3.57-.77,21.64-.77,21.64h3s3.41-15.56,3.62-19.73-.25-27.59-.25-27.59S100.41,94.72,92.84,101Z"/><polygon class="cls-6" points="103.23 67.79 100.14 77.24 105.73 78.35 106.96 68.54 103.23 67.79"/><path class="cls-2" d="M106.41,75.42s3.78.78,4.17,5.73.92,26.08.92,27.9c-.12.84-14.83,3.64-19.21-.62-1.11-1.08,2.51-19.46,2-24.29S96.62,73.21,106.41,75.42Z"/><path class="cls-2" d="M110.81,85.33a7.24,7.24,0,0,1,6.2-3.81s1.13-3.21,0-5.22c0,0-8.49-1.74-11.73-1.08S110.81,85.33,110.81,85.33Z"/><path class="cls-8" d="M126.12,65s.63-3.39-.49-5.32c-.68-1.14-1.42-1.68-2.15-1.47-.49.14-.7,1-.58,1.49a18.94,18.94,0,0,0,1,2.87s-.52,0-1-1.15-.9.53-.49,1.31C123,63.86,125,67,126.12,65Z"/><path class="cls-7" d="M94,151.13a4.37,4.37,0,0,0,2.62.16l-.14-.94a1.93,1.93,0,0,1,.82,1.25c.16.84.2.61,1.27,1.27a2.5,2.5,0,0,1,1,2.13l-8-.21a4.55,4.55,0,0,1,1.23-3.33A1,1,0,0,1,94,151.13Z"/><path class="cls-11" d="M111.16,66.37c-.15-1.18,2.43-2-2.5-5.46-2.52-1.76-6.9-1-8.25,1.68s-.63,2.92-1.68,3.11.06,8.43,6.37,8.33S111.16,66.37,111.16,66.37Z"/><path class="cls-5" d="M92,99.51h19.2a1.49,1.49,0,0,1,1.49,1.33c.33,2.89.68,9.44-2.7,9.91-4.34.61-5.73-4.08-5.73-8.44l-12.61.07S91.2,100.29,92,99.51Z"/><path class="cls-8" d="M86.72,107.84s-.37,4.36,1,5.55-2.49,1.74-3.46-.47.35-5.08.35-5.08Z"/><path class="cls-8" d="M86.35,108.41a2.5,2.5,0,0,1,1.8,1.64,11.35,11.35,0,0,1,.53,2.25.44.44,0,0,1-.71.41,1.35,1.35,0,0,1-.6-1.25c.11-1.33-1.49-.94-1.49-.94S85.35,109,86.35,108.41Z"/><path class="cls-10" d="M107.78,102.52h-1v-3a.32.32,0,0,1,.3-.31h.41a.32.32,0,0,1,.31.31v3Z"/><path class="cls-10" d="M109.27,102.52h-1v-2a.31.31,0,0,1,.31-.3H109a.31.31,0,0,1,.3.3v2Z"/><path class="cls-10" d="M111.18,102.52h-1.4V98.24a.42.42,0,0,1,.41-.41h.58a.42.42,0,0,1,.41.41Z"/><rect class="cls-12" x="104.57" y="102.52" width="7.74" height="0.65"/><path class="cls-5" d="M41.16,161.83a13.79,13.79,0,0,0-1.39-2.7,1.66,1.66,0,0,1-.08-1.72L41,155.12l-3-2.54-2,1.64a1.63,1.63,0,0,1-1.72.2,13.32,13.32,0,0,0-2.89-.92,1.62,1.62,0,0,1-1.26-1.16l-.72-2.5-3.91.33-.31,2.6a1.69,1.69,0,0,1-1.06,1.37,13.79,13.79,0,0,0-2.7,1.39,1.66,1.66,0,0,1-1.72.08l-2.29-1.27-2.54,3,1.63,2a1.63,1.63,0,0,1,.21,1.72,12.88,12.88,0,0,0-.92,2.88,1.62,1.62,0,0,1-1.17,1.27L12,166l.33,3.91,2.6.3a1.66,1.66,0,0,1,1.37,1.07,13.79,13.79,0,0,0,1.39,2.7,1.69,1.69,0,0,1,.09,1.72L16.54,178l3,2.54,2-1.64a1.63,1.63,0,0,1,1.72-.2,13.32,13.32,0,0,0,2.89.92,1.65,1.65,0,0,1,1.27,1.16l.71,2.52,3.91-.33.31-2.6A1.69,1.69,0,0,1,33.44,179a13.52,13.52,0,0,0,2.7-1.39,1.66,1.66,0,0,1,1.72-.08l2.3,1.27,2.53-3-1.63-2.05a1.65,1.65,0,0,1-.21-1.72,12.88,12.88,0,0,0,.92-2.88,1.65,1.65,0,0,1,1.17-1.27l2.52-.72-.33-3.91-2.6-.3A1.73,1.73,0,0,1,41.16,161.83ZM29.57,176.47a10,10,0,1,1,9.11-10.77A10,10,0,0,1,29.57,176.47Z"/><path class="cls-5" d="M22.12,167.09a6.65,6.65,0,1,1,7.19,6.06A6.66,6.66,0,0,1,22.12,167.09Z"/><path class="cls-13" d="M73,134.9a17,17,0,0,0-3.22-2.29,2.15,2.15,0,0,1-1.1-2l.1-3.4-5-1.14-1.39,3.09a2.17,2.17,0,0,1-1.87,1.27,16.66,16.66,0,0,0-3.89.65,2.15,2.15,0,0,1-2.17-.59l-2.31-2.48-4.32,2.68,1.19,3.2a2.14,2.14,0,0,1-.43,2.21,16.57,16.57,0,0,0-2.29,3.21,2.12,2.12,0,0,1-2,1.1l-3.39-.1-1.15,5L43,146.71a2.13,2.13,0,0,1,1.27,1.86,18.36,18.36,0,0,0,.63,3.89,2.14,2.14,0,0,1-.59,2.17l-2.48,2.31,2.69,4.32,3.19-1.21a2.17,2.17,0,0,1,2.21.43,16.88,16.88,0,0,0,3.21,2.29,2.11,2.11,0,0,1,1.11,1.95l-.11,3.4,5,1.14,1.39-3.09a2.14,2.14,0,0,1,1.86-1.27,17.74,17.74,0,0,0,3.89-.63,2.14,2.14,0,0,1,2.17.59l2.31,2.48L75,164.66l-1.19-3.2a2.16,2.16,0,0,1,.43-2.21,17.06,17.06,0,0,0,2.3-3.21,2.13,2.13,0,0,1,1.94-1.11l3.4.11,1.14-5-3.09-1.39a2.17,2.17,0,0,1-1.27-1.86,17.74,17.74,0,0,0-.63-3.89,2.16,2.16,0,0,1,.59-2.17l2.48-2.31-2.68-4.32-3.19,1.19A2.25,2.25,0,0,1,73,134.9Zm-4.71,23.76a12.94,12.94,0,1,1,4.13-17.83A13,13,0,0,1,68.32,158.66Z"/><path class="cls-13" d="M54.16,152.23A8.61,8.61,0,1,1,66,155,8.61,8.61,0,0,1,54.16,152.23Z"/><path class="cls-5" d="M216.23,39.62a16.37,16.37,0,0,0-2,3.32,2.13,2.13,0,0,1-1.82,1.25l-3.34.16-.74,4.93,3.14,1.13a2.16,2.16,0,0,1,1.37,1.72,15.43,15.43,0,0,0,.94,3.74,2.13,2.13,0,0,1-.41,2.17l-2.23,2.46,3,4,3-1.41a2.1,2.1,0,0,1,2.19.25,16.37,16.37,0,0,0,3.32,2,2.12,2.12,0,0,1,1.25,1.82l.16,3.34,4.93.74,1.13-3.14a2.14,2.14,0,0,1,1.72-1.37,15.62,15.62,0,0,0,3.75-.94,2.09,2.09,0,0,1,2.16.41l2.46,2.25,4-3-1.41-3a2.1,2.1,0,0,1,.25-2.19,16,16,0,0,0,2-3.31,2.12,2.12,0,0,1,1.82-1.25l3.34-.16.74-4.94-3.14-1.12a2.14,2.14,0,0,1-1.37-1.72A15.62,15.62,0,0,0,245.5,44a2.11,2.11,0,0,1,.41-2.17l2.25-2.45-3-4-3,1.41a2.1,2.1,0,0,1-2.18-.25,16.37,16.37,0,0,0-3.32-2,2.13,2.13,0,0,1-1.25-1.82l-.16-3.34-4.94-.74-1.12,3.14a2.16,2.16,0,0,1-1.72,1.37,15.62,15.62,0,0,0-3.75.94,2.14,2.14,0,0,1-2.17-.41l-2.45-2.25-4,3,1.41,3A2.17,2.17,0,0,1,216.23,39.62Zm23.6,2.77a12.68,12.68,0,1,1-17.74-2.66A12.69,12.69,0,0,1,239.83,42.39Z"/><path class="cls-5" d="M234.65,56.73a8.46,8.46,0,1,1,1.78-11.83A8.44,8.44,0,0,1,234.65,56.73Z"/><path class="cls-13" d="M165.72,23.09a22.72,22.72,0,0,0-.35,5A2.76,2.76,0,0,1,164,30.62l-3.74,2.15,2.06,6.14,4.3-.55a2.73,2.73,0,0,1,2.6,1.16,22.56,22.56,0,0,0,3.3,3.79,2.75,2.75,0,0,1,.79,2.74l-1.12,4.16L178,53.09l2.66-3.42a2.75,2.75,0,0,1,2.66-1,21.69,21.69,0,0,0,5,.35,2.75,2.75,0,0,1,2.51,1.37L193,54.11l6.14-2.06-.55-4.3a2.75,2.75,0,0,1,1.17-2.6,21.27,21.27,0,0,0,3.78-3.3,2.77,2.77,0,0,1,2.75-.79l4.17,1.12,2.89-5.81-3.44-2.66a2.72,2.72,0,0,1-1-2.66,21.69,21.69,0,0,0,.34-5,2.79,2.79,0,0,1,1.37-2.51l3.75-2.15-2.07-6.14-4.3.55a2.74,2.74,0,0,1-2.59-1.17,21.68,21.68,0,0,0-3.3-3.78,2.78,2.78,0,0,1-.8-2.75l1.13-4.17L196.63,1,194,4.44a2.73,2.73,0,0,1-2.67,1,21.56,21.56,0,0,0-5-.34,2.76,2.76,0,0,1-2.52-1.37L181.62,0l-6.14,2.07.56,4.3A2.74,2.74,0,0,1,174.87,9a22.11,22.11,0,0,0-3.79,3.3,2.76,2.76,0,0,1-2.74.8l-4.17-1.13-2.89,5.81,3.42,2.67A2.65,2.65,0,0,1,165.72,23.09ZM194.64,12.3a16.47,16.47,0,1,1-22.08,7.43A16.49,16.49,0,0,1,194.64,12.3Z"/><path class="cls-13" d="M197.14,32a11,11,0,1,1-5-14.72A11,11,0,0,1,197.14,32Z"/></g></g></svg>