<svg xmlns="http://www.w3.org/2000/svg" viewBox="0 0 225.17 128.07"><defs><style>.cls-1{fill:#f6c068;}.cls-2{fill:#edf4fb;}</style></defs><g id="Layer_2" data-name="Layer 2"><g id="Layer_3" data-name="Layer 3"><path class="cls-1" d="M28,33.75C18.33,36.12-6.48,45.89,1.59,79.65s34.73,42.93,34.73,42.93,15.51,3.55,22.64-2.07,31-23.1,40.32-26.06,27.91-1.77,36.6,2.08,23.57,15.1,34.73,13.32,40-5,46.52-24,5-58.63-15.19-70.18-45,3.56-55.52,0S120.37,0,106.72,0,78.81,6.22,72.3,12.14,40.51,30.05,34.46,32A55.26,55.26,0,0,1,28,33.75Z"/><path class="cls-2" d="M32.55,38.14C22.93,40.5-1.88,50.27,6.19,84S40.92,127,40.92,127s15.51,3.56,22.64-2.07,31-23.1,40.32-26.06,27.91-1.77,36.6,2.08,23.57,15.1,34.73,13.32,40-5,46.52-24,5-58.63-15.19-70.18-45,3.56-55.52,0S125,4.38,111.32,4.38,83.41,10.6,76.9,16.52,45.11,34.43,39.06,36.36A57.25,57.25,0,0,1,32.55,38.14Z"/></g></g></svg>