<svg xmlns="http://www.w3.org/2000/svg" viewBox="0 0 100.24 106.43"><defs><style>.cls-1{fill:#fef8ee;}.cls-2{fill:#edf4fb;}</style></defs><g id="Layer_2" data-name="Layer 2"><g id="Layer_3" data-name="Layer 3"><path class="cls-1" d="M0,53.5c0,18.66,14.91,52.93,38.29,52.93s60.82-23,60.82-41.67S65.73,19.71,42.34,19.71,0,34.84,0,53.5Z"/><path class="cls-1" d="M0,53.5c0,18.66,14.91,52.93,38.29,52.93s60.82-23,60.82-41.67S65.73,19.71,42.34,19.71,0,34.84,0,53.5Z"/><path class="cls-2" d="M1.13,33.79c0,18.66,14.9,52.93,38.29,52.93s60.82-23,60.82-41.67S66.86,0,43.47,0,1.13,15.13,1.13,33.79Z"/></g></g></svg>