<?xml version="1.0" encoding="UTF-8"?><!DOCTYPE svg PUBLIC "-//W3C//DTD SVG 1.1//EN" "http://www.w3.org/Graphics/SVG/1.1/DTD/svg11.dtd"><svg xmlns="http://www.w3.org/2000/svg" xmlns:xlink="http://www.w3.org/1999/xlink" version="1.1" id="Layer_1" x="0px" y="0px" fill="#eee" viewBox="0 0 50 50" xml:space="preserve"><path d="M15.243 19.194a1 1 0 1 0 0-2h-3.77a1 1 0 0 0-1 1v21.951a1 1 0 0 0 1 1h21.951a1 1 0 0 0 1-1V36.38a1 1 0 1 0-2 0v2.765h-19.95V19.194h2.769z"/><path d="M41.474 9.146H19.522a1 1 0 0 0-1 1v21.951a1 1 0 0 0 1 1h21.951a1 1 0 0 0 1-1V10.146a.998.998 0 0 0-.999-1zm-1 21.951H20.522V11.146h19.951v19.951z"/><metadata><rdf:RDF xmlns:rdf="http://www.w3.org/1999/02/22-rdf-syntax-ns#" xmlns:rdfs="http://www.w3.org/2000/01/rdf-schema#" xmlns:dc="http://purl.org/dc/elements/1.1/"><rdf:Description about="https://iconscout.com/legal#licenses" dc:title="minimize" dc:description="minimize" dc:publisher="Iconscout" dc:date="2017-09-26" dc:format="image/svg+xml" dc:language="en"><dc:creator><rdf:Bag><rdf:li>Petras Nargėla</rdf:li></rdf:Bag></dc:creator></rdf:Description></rdf:RDF></metadata></svg>