<svg xmlns="http://www.w3.org/2000/svg" viewBox="0 0 97.7 95.14"><defs><style>.cls-1{fill:#edf4fb;}.cls-2{fill:#ffbe55;}.cls-3{fill:#cce9ff;}</style></defs><g id="Layer_2" data-name="Layer 2"><g id="Layer_5" data-name="Layer 5"><path class="cls-1" d="M0,65.1c0,11.48,12.91,7.06,44.32,7.06S69,49.91,69,38.43,89.06,0,57.65,0,0,53.62,0,65.1Z"/><path class="cls-2" d="M48,72.83a14.28,14.28,0,0,0-1.09-3.31,1.9,1.9,0,0,1,.22-2L49,65.16l-2.94-3.41-2.61,1.48a2,2,0,0,1-2-.07,14.19,14.19,0,0,0-3.11-1.57A1.91,1.91,0,0,1,37.1,60l-.36-3-4.49-.33-.82,2.9A1.93,1.93,0,0,1,30,61a14.93,14.93,0,0,0-3.31,1.09,1.9,1.9,0,0,1-2-.22L22.3,60,18.9,63l1.47,2.61a1.92,1.92,0,0,1-.07,2,14.15,14.15,0,0,0-1.56,3.11,1.92,1.92,0,0,1-1.56,1.25l-3,.35-.33,4.49,2.9.82A1.94,1.94,0,0,1,18.12,79a14.12,14.12,0,0,0,1.09,3.31,1.9,1.9,0,0,1-.22,2l-1.85,2.37,2.94,3.41,2.61-1.48a2,2,0,0,1,2,.08,13.94,13.94,0,0,0,3.11,1.56A1.91,1.91,0,0,1,29,91.82l.36,3,4.49.33.82-2.9a1.93,1.93,0,0,1,1.46-1.36,15.11,15.11,0,0,0,3.31-1.09,1.92,1.92,0,0,1,2,.21l2.37,1.86,3.41-2.94L45.75,86.3a1.93,1.93,0,0,1,.08-2,14.15,14.15,0,0,0,1.56-3.11A1.92,1.92,0,0,1,49,80l3-.35.34-4.49-2.9-.82A2,2,0,0,1,48,72.83ZM32.24,87.34A11.45,11.45,0,1,1,44.51,76.77,11.47,11.47,0,0,1,32.24,87.34Z"/><path class="cls-2" d="M25.48,75.35a7.63,7.63,0,1,1,7,8.18A7.61,7.61,0,0,1,25.48,75.35Z"/><path class="cls-3" d="M89.08,48a20.67,20.67,0,0,0-3.22-3.19,2.48,2.48,0,0,1-.92-2.42l.74-3.83-5.42-2.2-2.15,3.26a2.45,2.45,0,0,1-2.33,1.09,20.18,20.18,0,0,0-4.53,0,2.5,2.5,0,0,1-2.34-1.07l-2.18-3.22-5.38,2.26.77,3.83A2.51,2.51,0,0,1,61.25,45a19.06,19.06,0,0,0-3.19,3.22,2.5,2.5,0,0,1-2.42.91l-3.83-.73-2.2,5.41L52.87,56A2.48,2.48,0,0,1,54,58.29a20.18,20.18,0,0,0,0,4.53,2.47,2.47,0,0,1-1.06,2.35l-3.23,2.19L52,72.76,55.81,72a2.5,2.5,0,0,1,2.42.87A19.43,19.43,0,0,0,61.45,76a2.54,2.54,0,0,1,.92,2.42l-.74,3.83L67,84.48l2.16-3.26a2.49,2.49,0,0,1,2.33-1.09,20.18,20.18,0,0,0,4.53,0,2.47,2.47,0,0,1,2.34,1.06l2.19,3.23L86,82.16l-.77-3.84a2.47,2.47,0,0,1,.86-2.42,19.43,19.43,0,0,0,3.19-3.22,2.5,2.5,0,0,1,2.43-.92l3.82.74,2.2-5.41-3.26-2.16a2.49,2.49,0,0,1-1.09-2.33,19.61,19.61,0,0,0,0-4.53,2.48,2.48,0,0,1,1.07-2.34l3.23-2.19-2.28-5.4-3.83.77A2.42,2.42,0,0,1,89.08,48ZM79.42,74.16a14.87,14.87,0,1,1,7.93-19.48A14.88,14.88,0,0,1,79.42,74.16Z"/><path class="cls-3" d="M64.52,64.29a9.91,9.91,0,1,1,13,5.28A9.91,9.91,0,0,1,64.52,64.29Z"/></g></g></svg>