<svg xmlns="http://www.w3.org/2000/svg" viewBox="0 0 180.24 175.4"><defs><style>.cls-1,.cls-2{fill:#ffbe55;}.cls-1{opacity:0.19;isolation:isolate;}.cls-3{opacity:0.1;}.cls-4{fill:#2a94f4;}.cls-5{fill:#cce9ff;}</style></defs><g id="Layer_2" data-name="Layer 2"><g id="Layer_5" data-name="Layer 5"><path class="cls-1" d="M0,172.25a3.15,3.15,0,0,0,3.15,3.15H116.4a3.15,3.15,0,0,0,3.15-3.15V74.74H0v97.51Z"/><path class="cls-2" d="M0,59v9.44H119.53V59a3.16,3.16,0,0,0-3.15-3.15H3.13A3.13,3.13,0,0,0,0,59Zm31.46,0h6.28v6.31H31.46ZM18.87,59h6.28v6.31H18.87ZM6.28,59h6.29v6.31H6.28Z"/><path class="cls-2" d="M60.61,3.25v9.44l119.53-.11V3.15A3.16,3.16,0,0,0,177,0L63.74.1a3.15,3.15,0,0,0-3.15,3.15Zm106.94-.09h6.28V9.44h-6.28ZM155,3.17h6.29V9.45H155Zm-12.58,0h6.28V9.46h-6.29Z"/><path class="cls-1" d="M129.91,119.57l47.18,0a3.16,3.16,0,0,0,3.15-3.16l-.09-97.5L60.63,19l0,31.46,59.77,0a9.42,9.42,0,0,1,9.44,9.42ZM104.67,41H98.39V34.68h6.28Zm12.59,0H111V34.67h6.28Zm12.58,0h-6.28V34.66h6.29Zm12.62,62.91,25.18,0v6.28l-25.17,0Zm0-12.59,25.18,0v6.28l-25.17,0Zm0-12.57,25.18,0V85l-25.17,0Zm0-12.58,25.18,0v6.28l-25.17,0Zm0-12.59,25.18,0v6.28l-25.17,0Zm-6.29-12.58V34.65h6.28v6.28Z"/><g class="cls-3"><path class="cls-4" d="M41.84,114.37a9.59,9.59,0,0,0-.67-2.19,1.24,1.24,0,0,1,.18-1.29l1.25-1.54-1.88-2.29L39,108a1.24,1.24,0,0,1-1.31-.08,10.4,10.4,0,0,0-2-1.08,1.24,1.24,0,0,1-.77-1l-.19-2-2.95-.29-.57,1.9a1.24,1.24,0,0,1-1,.86A10.13,10.13,0,0,0,28,107a1.24,1.24,0,0,1-1.29-.19l-1.54-1.24-2.29,1.88.92,1.74a1.24,1.24,0,0,1-.08,1.31,10.32,10.32,0,0,0-1.08,2,1.25,1.25,0,0,1-1.05.78l-2,.19-.29,2.94,1.9.58a1.24,1.24,0,0,1,.86,1,10.31,10.31,0,0,0,.68,2.19,1.25,1.25,0,0,1-.18,1.29L21.34,123l1.88,2.3,1.74-.92a1.24,1.24,0,0,1,1.31.08,10.12,10.12,0,0,0,2,1.08,1.24,1.24,0,0,1,.77,1l.19,2,2.94.29.58-1.91a1.25,1.25,0,0,1,1-.86,9.74,9.74,0,0,0,2.19-.67,1.24,1.24,0,0,1,1.29.18l1.53,1.25,2.3-1.88-.92-1.74a1.24,1.24,0,0,1,.08-1.31,10.4,10.4,0,0,0,1.08-2,1.27,1.27,0,0,1,1-.78l2-.18.29-3-1.91-.57A1.32,1.32,0,0,1,41.84,114.37Zm-10.6,9.29a7.53,7.53,0,1,1,8.23-6.75A7.53,7.53,0,0,1,31.24,123.66Z"/><path class="cls-4" d="M27,115.66a5,5,0,1,1,4.5,5.48A5,5,0,0,1,27,115.66Z"/></g><path class="cls-2" d="M60.49,135.61a13.79,13.79,0,0,0-1.39-2.7,1.66,1.66,0,0,1-.08-1.72l1.27-2.29-3-2.54-2,1.64a1.63,1.63,0,0,1-1.72.2,13.42,13.42,0,0,0-2.88-.92,1.62,1.62,0,0,1-1.27-1.16l-.72-2.5-3.91.33-.31,2.6a1.69,1.69,0,0,1-1.06,1.37,13.79,13.79,0,0,0-2.7,1.39,1.66,1.66,0,0,1-1.72.08l-2.29-1.27-2.54,3,1.64,2a1.65,1.65,0,0,1,.2,1.72,12.88,12.88,0,0,0-.92,2.88A1.62,1.62,0,0,1,33.88,139l-2.51.72.32,3.91,2.6.3A1.66,1.66,0,0,1,35.66,145a13.31,13.31,0,0,0,1.4,2.7,1.71,1.71,0,0,1,.08,1.72l-1.27,2.29,3,2.54,2-1.64a1.63,1.63,0,0,1,1.72-.2,13.5,13.5,0,0,0,2.89.92,1.65,1.65,0,0,1,1.27,1.16l.71,2.52,3.91-.33.31-2.6a1.69,1.69,0,0,1,1.06-1.37,13.09,13.09,0,0,0,2.71-1.39,1.65,1.65,0,0,1,1.71-.08l2.3,1.27,2.53-3-1.63-2.05a1.65,1.65,0,0,1-.21-1.72,12.88,12.88,0,0,0,.92-2.88,1.65,1.65,0,0,1,1.17-1.27l2.52-.72L64.46,137l-2.6-.3A1.73,1.73,0,0,1,60.49,135.61ZM48.91,150.25A10,10,0,1,1,58,139.48,10,10,0,0,1,48.91,150.25Z"/><path class="cls-2" d="M41.46,140.87a6.64,6.64,0,1,1,7.18,6.06A6.64,6.64,0,0,1,41.46,140.87Z"/><path class="cls-5" d="M92.36,108.68a17,17,0,0,0-3.22-2.29,2.15,2.15,0,0,1-1.1-2l.1-3.4-5-1.14L81.8,103a2.15,2.15,0,0,1-1.87,1.27,16.66,16.66,0,0,0-3.89.65,2.13,2.13,0,0,1-2.16-.59l-2.32-2.48-4.32,2.68,1.19,3.2a2.14,2.14,0,0,1-.43,2.21,16.57,16.57,0,0,0-2.29,3.21,2.14,2.14,0,0,1-1.95,1.11l-3.39-.11-1.15,5,3.09,1.39a2.14,2.14,0,0,1,1.27,1.86,18.36,18.36,0,0,0,.63,3.89,2.14,2.14,0,0,1-.59,2.17l-2.48,2.31L63.83,135,67,133.83a2.16,2.16,0,0,1,2.21.43,16.88,16.88,0,0,0,3.21,2.29,2.11,2.11,0,0,1,1.11,1.95l-.1,3.4,5,1.14L79.79,140a2.14,2.14,0,0,1,1.86-1.27,17.74,17.74,0,0,0,3.89-.63,2.14,2.14,0,0,1,2.17.59L90,141.12l4.32-2.68-1.18-3.2a2.14,2.14,0,0,1,.42-2.21,17.06,17.06,0,0,0,2.3-3.21,2.1,2.1,0,0,1,1.94-1.1l3.4.1,1.15-5-3.1-1.39A2.13,2.13,0,0,1,98,120.61a18.37,18.37,0,0,0-.64-3.89,2.16,2.16,0,0,1,.59-2.17l2.48-2.31-2.68-4.32-3.19,1.19A2.25,2.25,0,0,1,92.36,108.68Zm-4.71,23.76a12.94,12.94,0,1,1,4.13-17.83A13,13,0,0,1,87.65,132.44Z"/><path class="cls-5" d="M73.49,126a8.61,8.61,0,1,1,11.87,2.77A8.61,8.61,0,0,1,73.49,126Z"/></g></g></svg>