<svg xmlns="http://www.w3.org/2000/svg" viewBox="0 0 172.65 42.7"><defs><style>.cls-1{fill:#fef8ee;}.cls-2{fill:#edf4fb;}</style></defs><g id="Layer_2" data-name="Layer 2"><g id="Layer_5" data-name="Layer 5"><path class="cls-1" d="M81.38,9.92c-17.55,2.17-33.7,9.4-41.58,13.67-5.42,2.93-5.6,10.84-.72,15.38,7.1,6.6,28.79-5.11,53.06.85s49.3,1.53,58.08-3S174.6,29.14,172.44,21C169.63,10.41,157.1,7.1,146.63,8.64S120.28,14,111.5,16.33,81.38,9.92,81.38,9.92Z"/><path class="cls-2" d="M45.81,1.64C28.26,3.81,12.11,11,4.23,15.31c-5.42,2.93-5.6,10.83-.72,15.37,7.1,6.61,28.79-5.11,53.06.86s49.3,1.53,58.08-3,24.37-7.69,22.22-15.8C134.06,2.12,121.53-1.19,111.06.36S84.7,5.7,75.93,8.05,45.81,1.64,45.81,1.64Z"/></g></g></svg>